<svg xmlns="http://www.w3.org/2000/svg" width="621" height="621" viewBox="0 0 621 621">
  <defs>
    <radialGradient id="radialGradient-3" cx="276.83" cy="298.4" r="302.653" gradientUnits="userSpaceOnUse">
      <stop offset="0" stop-color="rgb(165,51,255)"/>
      <stop offset="1" stop-color="rgb(73,51,255)"/>
    </radialGradient>
    <radialGradient id="radialGradient-5" cx="283.86" cy="301.329" r="237.964" gradientUnits="userSpaceOnUse">
      <stop offset="0" stop-color="rgb(165,51,255)"/>
      <stop offset="1" stop-color="rgb(73,51,255)"/>
    </radialGradient>
    <radialGradient id="radialGradient-7" cx="293.35" cy="300.94" r="168.759" gradientUnits="userSpaceOnUse">
      <stop offset="0" stop-color="rgb(165,51,255)"/>
      <stop offset="1" stop-color="rgb(73,51,255)"/>
    </radialGradient>
  </defs>
  <g>
    <path fill="rgb(73,51,255)" fill-rule="evenodd" d="M10 0h601c5.51915024 0 10 4.48084976 10 10v601c0 5.51915024-4.48084976 10-10 10H10c-5.51915024 0-10-4.48084976-10-10V10C0 4.48084976 4.48084976 0 10 0z"/>
    <path fill="url(#radialGradient-3)" fill-rule="evenodd" d="M343.99281607 60.54141317C508.45557877 92.97351438 551 231.60484897 551 231.60484897s-15.87478404 90.30114456-42.54442124 99.83999786c-26.66963719 9.5388533-66.03910162 161.5245825-64.7691189 169.7915887 1.26998273 8.26700619-41.2744385 80.76229125-74.92898068 90.30114455-33.65454217 9.5388533-116.2034192 31.79617766-139.06310822 15.89808883-22.85968902-15.89808883-71.11903251-23.52917147-95.88369562-58.5049669-24.7646631-34.97579542-74.92898069-80.76229125-61.59416209-132.27209906 13.3348186-51.5098078 95.24870426-134.81579327 102.23360924-145.62649368 6.98490498-10.8107004 55.24424847-62.95643176 14.60480132-104.92738627S105.23606406 108.8716032 88.72628866 84.7065082C72.21651325 60.54141316 115.39592585 2.67236982 152.22542483 8.3956818c36.82949898 5.72331198 191.76739124 52.14573136 191.76739124 52.14573136"/>
    <path fill="url(#radialGradient-5)" fill-rule="evenodd" d="M336.74530977 114.311108c129.5 25.5 163 134.5 163 134.5s-12.5 71-33.5 78.5-52 127-51 133.5-32.5 63.5-59 71-91.5 25-109.5 12.5-56-18.5-75.5-46-59-63.5-48.5-104 75-106 80.5-114.5 43.5-49.5 11.5-82.5-66-45-79-64 21-64.5 50-60 151 41 151 41" transform="rotate(8.000003 310.37265488 310.843054)"/>
    <path fill="url(#radialGradient-7)" fill-rule="evenodd" d="M327.5597504 168.2994368C411.32976464 186.38502384 433 263.69204286 433 263.69204286s-8.08590871 50.35594817-21.67023535 55.67523847c-13.58432664 5.3192903-33.63738024 90.07331574-32.99050755 94.68336733.6468727 4.6100516-21.02336265 45.03665788-38.16548912 50.35594818-17.14212647 5.3192903-59.18885177 17.73096766-70.83256032 8.86548383-11.64370854-8.86548383-36.22487103-13.12091607-48.83888862-32.6249805-12.6140176-19.50406444-38.16548912-45.03665788-31.3733258-73.7608255 6.79216331-28.72416761 48.51545227-75.1793029 52.0732521-81.2078319 3.55779984-6.02852901 28.13896232-35.10731598 7.43903602-58.5121933-20.6999263-23.40487732-42.693598-31.9157418-51.10294306-45.39127723-8.40934506-13.47553542 13.58432663-45.74589657 32.34363485-42.5543224 18.7593082 3.19157419 97.67777724 29.07878698 97.67777724 29.07878698" transform="rotate(13.000005 310.5 307.6875)"/>
  </g>
</svg>
